<?xml version="1.0" encoding="UTF-8" standalone="no"?>
<svg width="193px" height="31px" viewBox="0 0 193 31" version="1.1" xmlns="http://www.w3.org/2000/svg" xmlns:xlink="http://www.w3.org/1999/xlink" xmlns:sketch="http://www.bohemiancoding.com/sketch/ns">
    <!-- Generator: Sketch 3.0.3 (7892) - http://www.bohemiancoding.com/sketch -->
    <title>Group</title>
    <desc>Created with Sketch.</desc>
    <defs></defs>
    <g id="Page-1" stroke="none" stroke-width="1" fill="none" fill-rule="evenodd" sketch:type="MSPage">
        <g id="linesystems-missija" sketch:type="MSArtboardGroup" transform="translate(-250.000000, -20.000000)">
            <g id="header" sketch:type="MSLayerGroup">
                <g id="Group" transform="translate(130.000000, 0.000000)" sketch:type="MSShapeGroup">
                    <path d="M125.209,51.2204787 C122.334,51.2204787 120,48.8899063 120,46.0168991 L120,20 L151.253,51.2204787 L125.209,51.2204787 Z" id="Fill-205" fill="#00EDCC"></path>
                    <path d="M146.044,20 C148.919,20 151.253,22.3315713 151.253,25.2035796 L151.253,51.2204787 L120,20 L146.044,20 Z" id="Fill-207" fill="#008996"></path>
                    <path d="M165,43.7172945 L165,27.9916753 L167.388,27.9916753 L167.388,41.5745265 L174.972,41.5745265 L174.972,43.7172945 L165,43.7172945 Z" id="Fill-210" fill="#008996"></path>
                    <path d="M179,27.9916753 L181.388,27.9916753 L181.388,43.7172945 L179,43.7172945 L179,27.9916753 Z" id="Fill-211" fill="#008996"></path>
                    <path d="M198.497,43.7172945 L198.497,33.2042456 L194.871,40.8682622 L193.101,40.8682622 L189.388,33.2042456 L189.388,43.7172945 L187,43.7172945 L187,27.9916753 L189.388,27.9916753 L193.986,37.7764828 L198.497,27.9916753 L200.885,27.9916753 L200.885,43.7172945 L198.497,43.7172945 Z" id="Fill-212" fill="#008996"></path>
                    <path d="M205,43.7172945 L205,27.9916753 L215.06,27.9916753 L215.06,30.1334443 L207.388,30.1334443 L207.388,34.7286576 L213.932,34.7286576 L213.932,36.8484495 L207.388,36.8484495 L207.388,41.5745265 L215.06,41.5745265 L215.06,43.7172945 L205,43.7172945 Z" id="Fill-213" fill="#008996"></path>
                    <path d="M225.239,43.9830177 C222.918,43.9830177 221.436,43.3426847 220,41.90718 L220.84,41.0680541 C222.255,42.4815817 223.427,42.9221228 225.305,42.9221228 C227.804,42.9221228 229.352,41.7303642 229.352,39.6755047 C229.352,38.7264932 229.087,37.9752758 228.49,37.4678044 C227.892,37.0042872 227.516,36.8044953 226.213,36.6286785 L224.378,36.3409781 C223.183,36.1641623 222.255,35.7885536 221.569,35.1921748 C220.751,34.5078876 220.331,33.5359001 220.331,32.2991883 C220.331,29.6479501 222.188,27.9916753 225.217,27.9916753 C227.163,27.9916753 228.401,28.5221228 229.75,29.6929032 L228.976,30.4660978 C228.048,29.5820187 227.009,29.008616 225.151,29.008616 C222.851,29.008616 221.503,30.2453278 221.503,32.2552341 C221.503,33.1602914 221.768,33.8455775 222.321,34.3090947 C222.874,34.7726119 223.78,35.1262435 224.665,35.2810822 L226.367,35.5458065 C227.848,35.7445994 228.534,36.0313007 229.175,36.5837253 C230.038,37.2909886 230.546,38.3728616 230.546,39.6325494 C230.546,42.3037669 228.534,43.9830177 225.239,43.9830177" id="Fill-214" fill="#FFFFFF"></path>
                    <path d="M238.838,43.7172945 L237.644,43.7172945 L237.644,37.2020812 L233,27.9916753 L234.283,27.9916753 L238.285,35.9433923 L242.198,27.9916753 L243.481,27.9916753 L238.838,37.2020812 L238.838,43.7172945 Z" id="Fill-216" fill="#FFFFFF"></path>
                    <path d="M250.24,43.9830177 C247.918,43.9830177 246.436,43.3426847 245,41.90718 L245.84,41.0680541 C247.255,42.4815817 248.427,42.9221228 250.305,42.9221228 C252.804,42.9221228 254.352,41.7303642 254.352,39.6755047 C254.352,38.7264932 254.087,37.9752758 253.49,37.4678044 C252.892,37.0042872 252.516,36.8044953 251.213,36.6286785 L249.378,36.3409781 C248.183,36.1641623 247.255,35.7885536 246.569,35.1921748 C245.751,34.5078876 245.331,33.5359001 245.331,32.2991883 C245.331,29.6479501 247.188,27.9916753 250.218,27.9916753 C252.163,27.9916753 253.401,28.5221228 254.75,29.6929032 L253.976,30.4660978 C253.048,29.5820187 252.009,29.008616 250.151,29.008616 C247.851,29.008616 246.503,30.2453278 246.503,32.2552341 C246.503,33.1602914 246.768,33.8455775 247.321,34.3090947 C247.874,34.7726119 248.78,35.1262435 249.665,35.2810822 L251.367,35.5458065 C252.848,35.7445994 253.534,36.0313007 254.176,36.5837253 C255.038,37.2909886 255.546,38.3728616 255.546,39.6325494 C255.546,42.3037669 253.534,43.9830177 250.24,43.9830177" id="Fill-217" fill="#FFFFFF"></path>
                    <path d="M263.882,43.7172945 L262.688,43.7172945 L262.688,29.0515713 L258,29.0515713 L258,27.9916753 L268.591,27.9916753 L268.591,29.0515713 L263.882,29.0515713 L263.882,43.7172945 Z" id="Fill-219" fill="#FFFFFF"></path>
                    <path d="M272,27.9916753 L281.552,27.9916753 L281.552,29.0525702 L273.194,29.0525702 L273.194,35.2581061 L280.314,35.2581061 L280.314,36.319001 L273.194,36.319001 L273.194,42.6583975 L281.552,42.6583975 L281.552,43.7172945 L272,43.7172945 L272,27.9916753 Z" id="Fill-220" fill="#FFFFFF"></path>
                    <path d="M297.028,30.7527992 L292.253,41.5095942 L291.058,41.5095942 L286.194,30.7527992 L286.194,43.7182934 L285,43.7182934 L285,27.9916753 L286.194,27.9916753 L291.677,40.1180437 L297.028,27.9916753 L298.222,27.9916753 L298.222,43.7182934 L297.028,43.7182934 L297.028,30.7527992 Z" id="Fill-221" fill="#FFFFFF"></path>
                    <path d="M307.24,43.9830177 C304.918,43.9830177 303.436,43.3426847 302,41.90718 L302.84,41.0680541 C304.255,42.4815817 305.427,42.9221228 307.305,42.9221228 C309.804,42.9221228 311.352,41.7303642 311.352,39.6755047 C311.352,38.7264932 311.087,37.9752758 310.49,37.4678044 C309.892,37.0042872 309.516,36.8044953 308.213,36.6286785 L306.378,36.3409781 C305.183,36.1641623 304.255,35.7885536 303.569,35.1921748 C302.751,34.5078876 302.331,33.5359001 302.331,32.2991883 C302.331,29.6479501 304.188,27.9916753 307.218,27.9916753 C309.163,27.9916753 310.401,28.5221228 311.75,29.6929032 L310.976,30.4660978 C310.048,29.5820187 309.009,29.008616 307.151,29.008616 C304.851,29.008616 303.503,30.2453278 303.503,32.2552341 C303.503,33.1602914 303.768,33.8455775 304.321,34.3090947 C304.874,34.7726119 305.78,35.1262435 306.665,35.2810822 L308.367,35.5458065 C309.848,35.7445994 310.534,36.0313007 311.176,36.5837253 C312.038,37.2909886 312.546,38.3728616 312.546,39.6325494 C312.546,42.3037669 310.534,43.9830177 307.24,43.9830177" id="Fill-222" fill="#FFFFFF"></path>
                </g>
            </g>
        </g>
    </g>
</svg>